<svg version="1.1" xmlns="http://www.w3.org/2000/svg" xmlns:xlink="http://www.w3.org/1999/xlink" width="403.53983" height="155.27144" viewBox="0,0,403.53983,155.27144"><g transform="translate(-37.69911,-104.0198)"><g data-paper-data="{&quot;isPaintingLayer&quot;:true}" fill-rule="nonzero" stroke-linejoin="miter" stroke-miterlimit="10" stroke-dasharray="" stroke-dashoffset="0" style="mix-blend-mode: normal"><path d="M72.70128,181.67678l-1.91881,-7.59779l2.0975,-0.52973l1.91881,7.5978z" fill="#847e87" stroke="#696a6a" stroke-width="1" stroke-linecap="butt"/><path d="M90.93263,179.50983l0.2538,-7.83223l2.16223,0.07006l-0.2538,7.83223z" fill="#847e87" stroke="#696a6a" stroke-width="1" stroke-linecap="butt"/><path d="M68.91223,174.71896c-0.27896,-1.18582 0.83167,-2.46159 2.48066,-2.84951c1.64899,-0.38792 3.21191,0.25891 3.49087,1.44473z" fill="#847e87" stroke="#696a6a" stroke-width="1" stroke-linecap="butt"/><path d="M89.2122,171.77626c0.05932,-1.21675 1.47906,-2.13622 3.17105,-2.05372c1.69199,0.08251 3.01553,1.13575 2.9562,2.3525z" fill="#847e87" stroke="#696a6a" stroke-width="1" stroke-linecap="butt"/><path d="M104,224.07872c0,-5.90877 4.79,-10.69877 10.69877,-10.69877c5.90877,0 10.69877,4.79001 10.69877,10.69877c0,5.90877 -4.79001,10.69877 -10.69877,10.69877c-5.90877,0 -10.69877,-4.79 -10.69877,-10.69877z" fill="#639bff" stroke="#5b6ee1" stroke-width="3" stroke-linecap="butt"/><path d="M122.48205,224.73289c0,1.00143 -0.41606,1.81323 -0.92928,1.81323c-0.51323,0 -0.92928,-0.81181 -0.92928,-1.81323c0,-1.00143 0.41605,-1.81324 0.92928,-1.81324c0.51323,0 0.92928,0.81181 0.92928,1.81324z" fill="#5b6ee1" stroke="none" stroke-width="0" stroke-linecap="butt"/><path d="M121.83735,223.7538l2.85568,-0.78795l0.14397,2.12816l-2.90733,0.52969z" fill="#847e87" stroke="#696a6a" stroke-width="1" stroke-linecap="butt"/><path d="M124.91428,227.10901c0,0 -1.33274,-0.47551 -1.83924,-3.09449c-0.44878,-2.32056 1.07073,-2.95743 1.07073,-2.95743c0.92049,-0.19924 1.83873,0.994 2.05094,2.6652c0.21222,1.6712 -0.36194,3.18749 -1.28243,3.38673z" fill="#847e87" stroke="#696a6a" stroke-width="1" stroke-linecap="butt"/><path d="M51.63819,208.9509c0,-17.37128 14.08221,-31.45349 31.45349,-31.45349c17.37128,0 31.45349,14.08221 31.45349,31.45349c0,17.37128 -14.08221,31.45349 -31.45349,31.45349c-17.37128,0 -31.45349,-14.08221 -31.45349,-31.45349z" fill="#639bff" stroke="#5b6ee1" stroke-width="3" stroke-linecap="butt"/><path d="M102.26205,229.76796c0,0 -25.15768,1.00955 -28.17135,-3.15243c-22.8188,-31.51359 28.17135,-24.44787 28.17135,-24.44787" fill="none" stroke="#ffffff" stroke-width="7.5" stroke-linecap="round"/><path d="M104.84262,226.12545c0,0 1.33516,-0.82576 1.16824,-1.52643c-0.19502,-0.81864 -1.88325,-1.56071 -1.66805,-2.04876c0.27707,-0.62833 2.66643,-1.33831 2.66643,-1.33831" fill="none" stroke="#ffffff" stroke-width="7.5" stroke-linecap="round"/><path d="M80.49062,229.30733l-0.97889,6.31637l-30.98853,-4.80253l0.9789,-6.31637z" data-paper-data="{&quot;index&quot;:null}" fill="#d9a066" stroke="#8f563b" stroke-width="3" stroke-linecap="butt"/><path d="M86.51811,219.99491l-3.49045,4.6854l2.53178,1.50046c0,0 -0.76238,6.55973 -1.69835,10.95872c-1.06483,5.00462 -14.3599,7.82728 -14.3599,7.82728l3.28338,-21.18619l3.15028,0.05767l-2.25523,-5.83301z" data-paper-data="{&quot;index&quot;:null}" fill="#847e87" stroke="#696a6a" stroke-width="3" stroke-linecap="butt"/><path d="M42.27963,225.07978c0,-5.90877 4.79,-10.69877 10.69877,-10.69877c5.90877,0 10.69877,4.79001 10.69877,10.69877c0,5.90877 -4.79001,10.69877 -10.69877,10.69877c-5.90877,0 -10.69877,-4.79 -10.69877,-10.69877z" fill="#639bff" stroke="#5b6ee1" stroke-width="3" stroke-linecap="butt"/><path d="M51.18212,200.86313l-0.63779,-8.90804l0.67115,-1.17772l-0.80714,-0.72167l-0.54733,-7.64462l6.46371,-1.065l1.92788,-0.04073l0.71344,-0.58347l24.01797,-3.37855l1.89344,1.36349l1.54163,-1.46615l17.60641,-2.65275l0.88223,1.09944l0.77647,-1.36794l3.68598,-0.60905l0.63232,8.83174l-1.57441,1.31388l1.7529,1.17907l0.5103,7.12736l-6.0181,0.8799l-1.37584,-0.62081l-0.86771,0.85346l-28.66544,4.28648l-0.92242,-0.81885l-0.9821,1.09731l-13.54076,1.97976l-0.92559,-0.72302l-0.78078,0.9725z" fill="#d9a066" stroke="#8f563b" stroke-width="3" stroke-linecap="butt"/><path d="M50.6378,187.5031l1.91066,-0.27935" fill="none" stroke="#8f563b" stroke-width="3" stroke-linecap="round"/><path d="M54.58772,194.60269l-2.9906,0.43725" fill="none" stroke="#8f563b" stroke-width="3" stroke-linecap="round"/><path d="M56.30178,185.71534l47.7665,-6.98383" fill="none" stroke="#8f563b" stroke-width="3" stroke-linecap="round"/><path d="M107.35747,188.32681l-48.01571,7.02026" fill="none" stroke="#8f563b" stroke-width="3" stroke-linecap="round"/><path d="M58.95928,190.00503l38.96085,-5.69637" fill="none" stroke="#8f563b" stroke-width="3" stroke-linecap="round"/><path d="M109.38601,183.83181l-1.99374,0.29149" fill="none" stroke="#8f563b" stroke-width="3" stroke-linecap="round"/><path d="M178.15474,249.42369l-0.63779,-4.82311l0.67115,-0.63766l-0.80714,-0.39074l-0.54733,-4.13905l6.46371,-0.57663l1.92788,-0.02205l0.71344,-0.31591l24.01797,-1.82926l1.89344,0.73824l1.54163,-0.79382l17.60641,-1.43628l0.88223,0.59527l0.77647,-0.74064l3.68597,-0.32976l0.63232,4.7818l-1.57441,0.71138l1.7529,0.63839l0.51029,3.85899l-6.0181,0.4764l-1.37584,-0.33613l-0.86771,0.46209l-28.66544,2.32084l-0.92242,-0.44335l-0.9821,0.59412l-13.54076,1.07191l-0.92559,-0.39147l-0.78078,0.52655z" fill="#d9a066" stroke="#8f563b" stroke-width="3" stroke-linecap="butt"/><path d="M177.61041,242.19013l1.91066,-0.15125" fill="none" stroke="#8f563b" stroke-width="3" stroke-linecap="round"/><path d="M178.56973,246.27083l2.9906,-0.23674" fill="none" stroke="#8f563b" stroke-width="3" stroke-linecap="round"/><path d="M183.2744,241.22218l47.7665,-3.78127" fill="none" stroke="#8f563b" stroke-width="3" stroke-linecap="round"/><path d="M234.33008,242.63611l-48.01571,3.801" fill="none" stroke="#8f563b" stroke-width="3" stroke-linecap="round"/><path d="M224.89274,240.46056l-38.96085,3.0842" fill="none" stroke="#8f563b" stroke-width="3" stroke-linecap="round"/><path d="M236.35863,240.20237l-1.99374,0.15782" fill="none" stroke="#8f563b" stroke-width="3" stroke-linecap="round"/><path d="M61.73507,195.4147c0,-0.80429 0.652,-1.45629 1.45629,-1.45629c0.80429,0 1.45629,0.652 1.45629,1.45629c0,0.80429 -0.652,1.45629 -1.45629,1.45629c-0.80429,0 -1.45629,-0.652 -1.45629,-1.45629z" fill="#847e87" stroke="#696a6a" stroke-width="1" stroke-linecap="butt"/><path d="M102.36713,191.59436c0,-0.80429 0.652,-1.45629 1.45629,-1.45629c0.80429,0 1.45629,0.652 1.45629,1.45629c0,0.80429 -0.652,1.45629 -1.45629,1.45629c-0.80429,0 -1.45629,-0.652 -1.45629,-1.45629z" fill="#847e87" stroke="#696a6a" stroke-width="1" stroke-linecap="butt"/><path d="M106.55203,174.71716c0,-0.80429 0.65201,-1.45629 1.4563,-1.45629c0.80429,0 1.45629,0.652 1.45629,1.45629c0,0.80429 -0.652,1.4563 -1.45629,1.4563c-0.80429,0 -1.4563,-0.65201 -1.4563,-1.4563z" fill="#847e87" stroke="#696a6a" stroke-width="1" stroke-linecap="butt"/><path d="M49.41374,182.79055c0,-0.80429 0.652,-1.45629 1.45629,-1.45629c0.80429,0 1.45629,0.652 1.45629,1.45629c0,0.80429 -0.652,1.45629 -1.45629,1.45629c-0.80429,0 -1.45629,-0.652 -1.45629,-1.45629z" fill="#847e87" stroke="#696a6a" stroke-width="1" stroke-linecap="butt"/><g fill="#847e87" stroke="#696a6a" stroke-width="1" stroke-linecap="butt"><path d="M146.75868,226.22927l16.96851,0.86204l-0.24104,2.90067l-16.96851,-0.86204z"/><path d="M163.67603,224.43451c1.63247,0.12988 2.80941,2.07546 2.62879,4.34555c-0.18062,2.27009 -1.65042,4.00507 -3.28289,3.87518z"/></g><g fill="#847e87" stroke="#696a6a" stroke-width="1" stroke-linecap="butt"><path d="M131.49801,230.34451l16.96851,0.86204l-0.24104,2.90067l-16.96851,-0.86204z"/><path d="M148.41536,228.54975c1.63247,0.12988 2.80941,2.07546 2.62879,4.34555c-0.18062,2.27009 -1.65042,4.00507 -3.28289,3.87518z"/></g><g fill="#847e87" stroke="#696a6a" stroke-width="1" stroke-linecap="butt"><path d="M137.15646,223.65725l16.96851,0.86204l-0.24104,2.90067l-16.96851,-0.86204z"/><path d="M154.07381,221.86249c1.63247,0.12988 2.80941,2.07546 2.62879,4.34555c-0.18062,2.27009 -1.65042,4.00507 -3.28289,3.87518z"/></g><g fill="#847e87" stroke="#696a6a" stroke-width="1" stroke-linecap="butt"><path d="M172.4789,227.60102l16.96851,0.86204l-0.24104,2.90067l-16.96851,-0.86204z"/><path d="M189.39625,225.80626c1.63247,0.12988 2.80941,2.07546 2.62879,4.34555c-0.18062,2.27009 -1.65042,4.00507 -3.28289,3.87518z"/></g><g fill="#847e87" stroke="#696a6a" stroke-width="1" stroke-linecap="butt"><path d="M157.21824,231.71625l16.96851,0.86204l-0.24104,2.90067l-16.96851,-0.86204z"/><path d="M174.13559,229.92149c1.63247,0.12988 2.80941,2.07546 2.62879,4.34555c-0.18062,2.27009 -1.65042,4.00507 -3.28289,3.87518z"/></g><g fill="#847e87" stroke="#696a6a" stroke-width="1" stroke-linecap="butt"><path d="M162.87668,225.02899l16.96851,0.86204l-0.24104,2.90067l-16.96851,-0.86204z"/><path d="M179.79404,223.23424c1.63247,0.12988 2.80941,2.07546 2.62879,4.34555c-0.18062,2.27009 -1.65042,4.00507 -3.28289,3.87518z"/></g><g fill="#847e87" stroke="#696a6a" stroke-width="1" stroke-linecap="butt"><path d="M158.41851,233.25947l16.96851,0.86204l-0.24104,2.90067l-16.96851,-0.86204z"/><path d="M175.33586,231.46471c1.63247,0.12988 2.80941,2.07546 2.62879,4.34555c-0.18062,2.27009 -1.65042,4.00507 -3.28289,3.87518z"/></g><g fill="#847e87" stroke="#696a6a" stroke-width="1" stroke-linecap="butt"><path d="M143.15785,237.3747l16.96851,0.86204l-0.24104,2.90067l-16.96851,-0.86204z"/><path d="M160.0752,235.57994c1.63247,0.12988 2.80941,2.07546 2.62879,4.34555c-0.18062,2.27009 -1.65042,4.00507 -3.28289,3.87518z"/></g><g fill="#847e87" stroke="#696a6a" stroke-width="1" stroke-linecap="butt"><path d="M148.8163,230.68744l16.96851,0.86204l-0.24104,2.90067l-16.96851,-0.86204z"/><path d="M165.73365,228.89268c1.63247,0.12988 2.80941,2.07546 2.62879,4.34555c-0.18062,2.27009 -1.65042,4.00507 -3.28289,3.87518z"/></g><g fill="#847e87" stroke="#696a6a" stroke-width="1" stroke-linecap="butt"><path d="M183.27737,224.27036l-14.2741,9.21539l-1.4993,-2.49482l14.2741,-9.21539z"/><path d="M170.59719,235.61193c-1.40069,0.84847 -3.49264,-0.04271 -4.67251,-1.99049c-1.17987,-1.94779 -1.00086,-4.21459 0.39983,-5.06306z"/></g><g fill="#847e87" stroke="#696a6a" stroke-width="1" stroke-linecap="butt"><path d="M168.0167,228.3856l-14.2741,9.21539l-1.4993,-2.49482l14.2741,-9.21539z"/><path d="M155.33652,239.72716c-1.40069,0.84847 -3.49264,-0.04271 -4.67251,-1.99049c-1.17987,-1.94779 -1.00086,-4.21459 0.39983,-5.06306z"/></g><g fill="#847e87" stroke="#696a6a" stroke-width="1" stroke-linecap="butt"><path d="M173.67515,221.69834l-14.2741,9.21539l-1.4993,-2.49482l14.2741,-9.21539z"/><path d="M160.99497,233.0399c-1.40069,0.84847 -3.49264,-0.04271 -4.67251,-1.99049c-1.17987,-1.94779 -1.00086,-4.21459 0.39983,-5.06306z"/></g><text transform="translate(272.95786,126.21116) scale(0.47402,0.47402)" font-size="40" xml:space="preserve" fill="#000000" fill-rule="nonzero" stroke="none" stroke-width="1" stroke-linecap="butt" stroke-linejoin="miter" stroke-miterlimit="10" stroke-dasharray="" stroke-dashoffset="0" font-family="&quot;ヒラギノ角ゴ Pro W3&quot;, &quot;Hiragino Kaku Gothic Pro&quot;, Osaka, &quot;メイリオ&quot;, Meiryo, &quot;ＭＳ Ｐゴシック&quot;, &quot;MS PGothic&quot;" font-weight="normal" text-anchor="start" style="mix-blend-mode: normal"><tspan x="0" dy="0">this website</tspan></text><path d="M350.87168,164.16257c-2.7503,-2.89312 -5.89127,-6.68726 -6.18246,-10.1741c-0.40039,-4.79437 4.94266,-9.80043 7.6666,-12.8953c0,0 2.09045,-2.36919 4.45963,-0.27873c2.36918,2.09045 0.27873,4.45964 0.27873,4.45964c-0.60326,0.68185 -6.4135,6.22018 -6.10282,8.25056c0.42599,2.78393 4.60548,6.48544 6.45956,8.32481l1.40747,0.78425c0,0 0.42638,0.26649 0.83265,0.75695c-0.01738,-1.2753 -0.01152,-5.61727 -0.01152,-5.69997c0,0 0,-3.15958 3.15959,-3.15958c3.15959,0 3.15958,3.15958 3.15958,3.15958c0,3.26878 0.9244,9.50557 -1.83679,11.98473c-1.29809,1.1655 -3.40054,0.82681 -5.13566,1.00782c-5.81354,0.60649 -11.13677,-0.30936 -16.61099,-2.12687l-1.48089,-1.00916c0,0 -2.23417,-2.23417 0,-4.46834c1.66924,-1.66924 3.33849,-0.84415 4.07592,-0.32017c2.13392,0.69543 3.91004,1.16001 5.86139,1.40389z" data-paper-data="{&quot;index&quot;:null}" fill="#000000" stroke="none" stroke-width="0.5" stroke-linecap="butt"/><path d="M354.33538,250.19575v-67.35028h83.385v67.35028z" fill="#c28f5b" stroke="#d9a066" stroke-width="3" stroke-linecap="butt"/><g stroke-width="3" stroke-linecap="butt"><path d="M359.30298,226.33994l19.02625,-62.25806l46.30383,14.1506l-10.45061,34.19668l6.58218,13.85457l-5.14271,17.26745z" fill="#eec39a" stroke="#d9a066"/><path d="M369.99697,208.34541l15.50731,-50.74328l35.83189,10.95033l-15.50731,50.74329z" fill="#ffffff" stroke="#cbdbfc"/><path d="M390.55048,228.08192l-0.47794,-53.0578l37.46625,-0.33749l0.47794,53.0578z" fill="#ffffff" stroke="#cbdbfc"/><path d="M362.08942,222.32095l27.96788,-45.09054l31.84024,19.74925l-27.96787,45.09053z" fill="#ffffff" stroke="#cbdbfc"/><path d="M358.97592,226.23999l19.02626,-62.25805l23.18357,12.19519l-19.02626,62.25806z" fill="#eec39a" stroke="#d9a066"/></g><path d="M354.33538,250.19575v-47.36195h83.385v47.36195z" fill="#eec39a" stroke="#d9a066" stroke-width="3" stroke-linecap="butt"/><text transform="translate(357.75018,228.99998) scale(0.66546,0.66546)" font-size="40" xml:space="preserve" fill="#000000" fill-rule="nonzero" stroke="none" stroke-width="1" stroke-linecap="butt" stroke-linejoin="miter" stroke-miterlimit="10" stroke-dasharray="" stroke-dashoffset="0" font-family="&quot;ヒラギノ角ゴ Pro W3&quot;, &quot;Hiragino Kaku Gothic Pro&quot;, Osaka, &quot;メイリオ&quot;, Meiryo, &quot;ＭＳ Ｐゴシック&quot;, &quot;MS PGothic&quot;" font-weight="normal" text-anchor="start" style="mix-blend-mode: normal"><tspan x="0" dy="0">TODO</tspan></text><text transform="translate(356.72989,240.54308) scale(0.22552,0.22552)" font-size="40" xml:space="preserve" fill="#000000" fill-rule="nonzero" stroke="none" stroke-width="1" stroke-linecap="butt" stroke-linejoin="miter" stroke-miterlimit="10" stroke-dasharray="" stroke-dashoffset="0" font-family="&quot;ヒラギノ角ゴ Pro W3&quot;, &quot;Hiragino Kaku Gothic Pro&quot;, Osaka, &quot;メイリオ&quot;, Meiryo, &quot;ＭＳ Ｐゴシック&quot;, &quot;MS PGothic&quot;" font-weight="normal" text-anchor="start" style="mix-blend-mode: normal"><tspan x="0" dy="0">VERY IMPORTANT</tspan></text><path d="M37.69911,254.90477v-150.88496h403.53983v150.88496z" fill="none" stroke="none" stroke-width="none" stroke-linecap="butt"/><g stroke-linecap="butt"><path d="M352.25568,253.89696l0.76696,-10.04894l54.27257,3.794l-0.76696,10.04894z" fill="#ffffff" stroke="#cbdbfc" stroke-width="3"/><path d="M361.20339,248.6127c0.12259,0.32978 -0.76332,0.32138 -0.76332,0.32138l-0.55633,-0.00974c-0.67857,-0.04744 -1.35713,-0.09487 -2.0357,-0.14231c0,0 -0.28166,-0.01969 -0.52442,-0.09424c-0.05222,0.00017 -0.10833,-0.00114 -0.16862,-0.00414c-0.894,-0.04443 -0.91891,-0.37131 -0.91891,-0.37131c-0.03002,-0.39787 -0.47605,-1.73063 0.29225,-1.98652c0.56469,-0.18807 2.16794,-0.03811 2.93862,0.01494l0.40714,0.02846c0,0 0.89401,0.0625 0.86929,0.38641c-0.02472,0.32391 -0.91873,0.26141 -0.91873,0.26141l-0.40714,-0.02846c-0.51951,-0.03696 -1.23498,-0.28185 -1.55117,-0.15063c-0.12487,0.05182 0.17507,0.14888 0.19311,0.22438c0.01158,0.04846 0.01979,0.09705 0.02528,0.14574c0.23278,0.01627 0.46556,0.03255 0.69834,0.04882l1.01785,0.07115c0,0 0.89401,0.0625 0.86929,0.38641c-0.02472,0.32391 -0.91873,0.26141 -0.91873,0.26141c-0.25767,-0.01801 -1.18927,-0.08314 -1.69804,-0.1187c-0.01174,0.09548 -0.02303,0.19086 -0.02913,0.28591c0.63629,0.04448 1.27259,0.08896 1.90888,0.13344l0.2617,-0.00199c0,0 0.88591,0.0084 1.0085,0.33817z" fill="#000000" stroke="none" stroke-width="0.5"/><path d="M364.11382,249.50543c-0.74185,0.13741 -1.24137,-0.16249 -1.24137,-0.16249l-0.47797,-0.37404c-0.05628,-0.53581 -0.00245,-1.06593 0.04723,-1.59582c-0.25907,-0.02208 -0.57499,-0.08625 -0.7345,-0.26016c-0.29786,-0.32476 0.54544,-0.3827 0.54544,-0.3827c0.60644,-0.04154 1.22023,-0.07547 1.83973,-0.10114l0.59637,-0.03015c0,0 0.85595,-0.04314 1.11521,0.28391c0.25926,0.32705 -0.59669,0.37019 -0.59669,0.37019l-0.63631,0.03198c-0.1079,0.00442 -0.21562,0.00912 -0.32313,0.0141c-0.05221,0.58175 -0.12933,1.16318 -0.06599,1.75142l0.17433,0.01759c0,0 0.49952,0.2999 -0.24234,0.43732z" fill="#000000" stroke="none" stroke-width="0.5"/><path d="M367.75174,249.14673l-0.89652,-0.08173c-0.09751,0.05454 -0.20298,0.10787 -0.32038,0.1593c0,0 -0.52921,0.23074 -1.25018,-0.00501c-0.72098,-0.23576 -0.19177,-0.4665 -0.19177,-0.4665c0.82358,-0.3572 1.16253,-0.90117 2.29158,-1.14019c0.48013,-0.10165 0.98769,-0.32334 1.56358,-0.22886c0.5825,0.09557 0.57738,0.42245 0.88586,0.63072c0.72621,0.49029 1.01037,0.97048 1.48658,1.48931l0.04696,0.16961c0,0 -0.02472,0.32391 -0.91873,0.26141c-0.78174,-0.05465 -0.86101,-0.30918 -0.86859,-0.37224c-0.12588,-0.13046 -0.2838,-0.27403 -0.44848,-0.42165c-0.45959,0.00275 -0.91959,0.00466 -1.37992,0.00584zM368.23153,248.22984c-0.08997,0.045 -0.17728,0.0867 -0.23446,0.1155c-0.09074,0.04571 -0.17432,0.09279 -0.25342,0.14079c0.23003,-0.00074 0.45997,-0.00168 0.68982,-0.00283c-0.08214,-0.08913 -0.15164,-0.17441 -0.20193,-0.25346z" fill="#000000" stroke="none" stroke-width="0.5"/><path d="M372.03916,249.49788c0.01365,-0.17889 0.42498,-0.29593 0.91873,-0.26141c0.49375,0.03452 0.88294,0.20752 0.86929,0.38641c-0.01365,0.17889 -0.42498,0.29593 -0.91873,0.26141c-0.49375,-0.03452 -0.88294,-0.20752 -0.86929,-0.38641z" fill="#000000" stroke="none" stroke-width="0.5"/><path d="M372.14611,248.09652c0.01365,-0.17889 0.42498,-0.29593 0.91873,-0.26141c0.49375,0.03452 0.88294,0.20752 0.86929,0.38641c-0.01365,0.17889 -0.42498,0.29593 -0.91873,0.26141c-0.49375,-0.03452 -0.88294,-0.20752 -0.86929,-0.38641z" fill="#000000" stroke="none" stroke-width="0.5"/><path d="M381.36514,253.19278l-0.12114,-0.00847l-0.00851,0.00143l-0.02491,-0.00377l-0.02491,-0.00174l-0.19791,-0.03198l-0.1993,-0.03016l-0.02197,-0.00559l-0.02474,-0.004l-0.00474,-0.00351l-0.12554,-0.03196l-0.13074,-0.05095l-0.06666,-0.00954l-0.05899,-0.03942l-0.08515,-0.03318l-0.0019,-0.025l-0.06166,-0.0412l-0.10093,-0.05466l-0.03724,-0.0341l-0.0599,-0.03049l-0.04239,-0.03565l-0.0187,-0.03632l-0.04393,-0.03471l-0.01874,-0.032l-0.12809,-0.10773l-0.02268,-0.04404l-0.04813,-0.04267l-0.02479,-0.05413l-0.02152,-0.02255l-0.0321,-0.02267l-0.10549,-0.0705l-0.00722,-0.00911l-0.0126,-0.0089l0.00291,-0.00333l-0.02423,-0.03057l-0.00667,-0.04976l-0.00447,-0.00376l-0.00858,-0.00241l-0.00554,-0.00946l-0.01052,-0.00885l-0.00472,-0.00917c-0.49188,0.14132 -1.8738,0.17846 -2.16981,-0.04052c-0.2592,-0.07477 -0.42804,-0.19105 -0.41896,-0.30993c0.01365,-0.17889 0.42498,-0.29593 0.91873,-0.26141c0.13264,0.00927 0.25773,0.02854 0.36949,0.05523c0.50187,-0.01478 1.01387,0.02371 1.29107,0.14034l0.01058,-0.0191l0.07961,-0.05714l0.06802,-0.05964l0.0411,-0.01869l0.00667,-0.00479l0.00448,-0.00028l0.04121,-0.01874l0.06754,-0.0171l0.04792,-0.02446l0.01224,-0.00348l0.08158,-0.04164l0.07997,-0.02276l0.05923,-0.03023l0.13833,-0.03936l0.12528,-0.01817l0.1117,-0.02626l0.04209,-0.00462l0.00107,-0.00164l0.09862,-0.01557l0.07717,-0.02637l0.06836,0.0034l0.15142,-0.02391l0.13585,-0.00685l0.10619,0.00445l0.06922,-0.00514l0.00323,-0.00047l0.1117,-0.02626l0.03808,-0.00418l0.00522,-0.00281l0.02508,-0.00051l0.02259,-0.00248l0.05083,-0.00054l0.02287,-0.00332l0.01704,0.0029l0.11102,-0.00117l0.20066,-0.00412l0.02491,0.00174l0.02522,-0.00027l0.0082,0.0026l1.3326,0.09316l0.13846,0.02238l0.14298,0.01401l0.13337,0.02567l0.02228,0.00681l0.02654,0.00318l0.22186,0.0482l0.10452,0.03536l0.061,0.0055l0.08868,0.04514l0.11187,0.03785l0.00678,0.02255l0.08285,0.04217l0.00837,0.00704l0.08426,0.0314l0.0144,0.00827l0.01903,0.00742l0.00028,0.00367l0.18378,0.10552l0.00752,0.00145l0.00919,0.00815l0.02508,0.0144l0.07172,0.07142l0.01755,0.01556l0.0192,0.00333l0.06063,0.04791l0.08863,0.04282l-0.00606,0.02243l0.06238,0.0493l0.05112,0.08731l0.06311,0.04458l0.02606,0.03613l0.05056,0.03379l0.04115,0.05191l0.00706,0.05269l0.031,0.05295l-0.00384,0.05033l0.02867,0.16707l-0.00748,0.01435l0.00892,0.01523l-0.01576,0.20646l0.00534,0.00342l-0.00626,0.00869l-0.00069,0.00903l-0.05533,0.06872l-0.05011,0.06954l-0.01176,0.00729l-0.00692,0.00859l-0.00886,0.0012l-0.06717,0.04167l-0.09654,0.033l-0.07735,0.03948l-0.09222,0.02624l-0.03949,0.00573l-0.00393,0.00134l-0.00397,-0.0002l-0.0087,0.00126l-0.04196,0.01526l-0.1832,0.03622l-0.07577,0.00619l-0.06316,0.01485l-0.03808,0.00418l-0.00522,0.00281l-0.02508,0.00051l-0.02259,0.00248l-0.172,0.00181l-0.02769,0.00226l-0.00797,-0.00183l-0.00618,0.00013l-0.10396,0.02444l-0.09098,0.00998l-0.05083,0.00054l-0.02287,0.00332l-0.01704,-0.0029l-0.00596,0.00006l-0.08815,0.01071l-0.21016,0.00431l-0.00587,0.00099l-0.11356,0.00669l-0.10252,0.01618l-0.13585,0.00685l-0.14359,-0.00602l-0.14039,0.00288l-0.26921,-0.01882l-0.13846,-0.02238l-0.14298,-0.01401l-0.05016,-0.00965l-0.27017,-0.03123l-0.13965,-0.02967l-0.06112,-0.00925c-0.11134,0.00983 -0.23369,0.01106 -0.36156,0.00212zM383.09522,252.63847l0.1307,-0.01896l0.03556,-0.01913l0.11221,-0.0023l0.07087,-0.01028l0.0051,-0.06679l-0.02867,-0.16707l0.00748,-0.01435l-0.00574,-0.00981l-0.05308,-0.03749l-0.035,-0.04852l-0.05899,-0.04661l-0.01495,-0.02554l-0.01944,-0.00374l-0.0463,-0.04105l-0.07492,-0.0362l0.00659,-0.02438l-0.07109,-0.06303l-0.00439,-0.00959l-0.02045,-0.01174l-0.0006,-0.00005l-0.11161,-0.05681l-0.04006,-0.01561l-0.9331,-0.06523l-0.0998,0.01876l-0.09012,0.00669l-0.00593,0.00086l-0.00172,-0.00029l-0.12905,0.00958l-0.06254,-0.00128l-0.04043,0.01382l-0.0446,-0.00222l-0.05673,0.01334l-0.11484,0.0126l-0.06104,0.03116l-0.07997,0.02276l-0.02,0.01021l-0.00355,0.04648l0.03495,0.06787l0.02019,0.03449l0.09404,0.05589l0.03319,0.03479l0.00334,0.00236l-0.00052,0.0006l0.04753,0.04982l0.00891,0.03047l0.03334,0.02956l0.01843,0.04024l0.11897,0.10006l0.0187,0.03632l0.04199,0.03318l0.05949,-0.00171l0.02122,-0.00527l0.03676,0.0036l0.28934,-0.0083l0.24227,0.07078l0.02341,0.00451l0.03104,0.00949l0.24442,0.02825l0.08215,0.01745l0.03531,0.00346l0.0928,-0.00547l0.13699,-0.01665z" fill="#000000" stroke="none" stroke-width="0.5"/><path d="M387.30292,252.31921c1.02354,0.0947 2.89418,0.27647 2.90639,0.79031c0.0104,0.43776 -2.23442,1.46616 -3.79776,0.77124c-1.43757,-0.63902 1.35995,-0.42314 1.99711,-0.73064c0.0637,-0.03074 -2.88506,-0.17909 -3.03779,-0.62672c-0.13462,-0.39456 1.65621,-1.9955 3.36849,-0.72884c0.2592,0.07477 0.42804,0.19105 0.41896,0.30993c-0.00901,0.118 -0.19104,0.20909 -0.45562,0.24752c-0.05367,0.01084 -0.12025,0.01696 -0.21032,0.01847c-0.08051,0.00289 -0.16536,0.00153 -0.2528,-0.00458c-0.31194,-0.01292 -1.24775,-0.07547 -0.93666,-0.04668z" fill="#000000" stroke="none" stroke-width="0.5"/><path d="M400.50579,252.31713c5.16522,-0.90339 2.05899,2.47204 1.17621,2.41033c-1.63677,-0.11442 -0.23903,-1.49449 -0.21966,-1.80577c0.00634,-0.10197 -0.26604,-0.04554 -0.60519,0.03107c-0.13496,0.11514 -0.47023,0.18058 -0.85575,0.15363c-0.00136,-0.00009 -0.00272,-0.00019 -0.00407,-0.00029c-0.08283,-0.00592 -0.16269,-0.01575 -0.23816,-0.02883l0.04712,0.02667l-0.00845,0.0161l0.03487,0.02756l0.01874,0.032l0.0857,0.07208l0.02268,0.04404l0.04813,0.04267l0.03867,0.08442l-0.00297,0.01419l0.01275,0.0144l0.0337,0.14945l-0.00812,0.0176l0.01086,0.01855l-0.01244,0.163l0.06237,0.13617l-0.00669,0.03193l0.01921,0.03281l-0.00831,0.10892l0.00534,0.00342l-0.00626,0.00869l-0.00069,0.00903l-0.05533,0.06872l-0.05011,0.06954l-0.01176,0.00729l-0.00692,0.00859l-0.00886,0.0012l-0.11452,0.07105l-0.04904,0.01676l-0.00371,0.01596l-0.13774,0.03238l-0.04565,0.0156l-0.00104,0.0045l-0.03881,0.00912l-0.03354,0.01146l-0.01257,-0.00062l-0.09484,0.02229l-0.17543,0.0444l-0.01365,-0.0013l-0.35321,0.03876l-0.14115,0.00149l-0.13459,0.01034l-0.20881,-0.00377l-0.12622,0.00937l-0.1684,-0.00344l-0.1654,0.0034l-1.12172,-0.07842l-0.44391,-0.07174l-0.20637,-0.15266l-0.09521,-0.01539l-0.0657,-0.00086l-0.0509,-0.01799l-0.06297,-0.01018l-0.03126,-0.02313l-0.21365,-0.0755l-0.17327,-0.09383l-0.00561,-0.00514l-0.01088,-0.00405l-0.24605,-0.14127l-0.20272,-0.10582l-0.0426,-0.03707l-0.06546,-0.03332l-0.10365,-0.08717l-0.14244,-0.09115l-0.03705,-0.04355l-0.06132,-0.04098l-0.04115,-0.05191l-0.00706,-0.05269l-0.031,-0.05295l0.00068,-0.00893c-0.79828,0.12612 -2.65266,0.07369 -2.97313,-0.16337c-0.2592,-0.07477 -0.42804,-0.19105 -0.41896,-0.30993c0.01365,-0.17889 0.42498,-0.29593 0.91873,-0.26141c0.17675,0.01236 0.3401,0.04246 0.47637,0.08422c0.76173,-0.01463 1.62546,0.04634 2.06755,0.21778l0.00605,-0.00752l-0.01616,-0.02515l0.06183,-0.03156l0.03094,-0.03843l0.06029,-0.00814l0.09493,-0.04845l0.13833,-0.03936l0.1087,-0.01577l0.09342,-0.0245l0.41002,-0.05305l0.12565,-0.0034l0.1171,-0.01285l0.4063,-0.00428l0.09835,0.00782l0.09618,-0.00197l0.22556,0.01577l0.1383,-0.00035l0.05468,0.00477l0.05248,-0.00265l0.58453,0.02452l0.0344,0.00454l0.03424,-0.0007l0.53842,0.03764l0.10603,0.01714l0.11006,0.00769l0.35647,0.05761l0.03047,0.00814l0.03488,0.00342l0.13337,0.02567l0.05333,0.01631l0.06243,0.00945l0.17699,0.04506l0.00861,0.00335c-0.02756,-0.03451 -0.04119,-0.07034 -0.03844,-0.10642c0.01087,-0.14237 0.27361,-0.24557 0.62933,-0.26437c0.19986,-0.04762 0.43515,-0.08441 0.74436,-0.13849zM397.02519,253.68527c0.05121,0.00358 0.10129,0.00865 0.14991,0.01506l0.02649,0.00111l0.0098,0.00396c0.26713,0.03947 0.48629,0.11957 0.59967,0.21458l0.06029,0.00421l0.0652,-0.00484l0.10667,0.00218l0.10044,-0.00772l0.17113,0.00309l0.04975,-0.00546l0.00026,-0.00346l-0.06237,-0.13617l0.00669,-0.03193l-0.01921,-0.03281l0.01352,-0.17714l-0.02638,-0.11696l-0.01187,-0.02593l-0.07658,-0.06441l-0.00486,-0.00943l-0.028,-0.00539l-0.21736,-0.03513l-0.39403,-0.02755l-0.49629,-0.02082l-0.17236,0.00044l-0.08883,-0.00775l-0.08698,0.00179l-0.21594,-0.0151l-0.14727,0.00155l-0.01094,0.14334l0.07112,0.04551l0.01753,0.0206l0.03558,0.01811l0.08332,0.07008l0.15268,0.0797l0.00962,0.00837l0.0178,0.00663l0.14216,0.08162c0.05507,0.00003 0.11177,0.00199 0.16961,0.00604z" fill="#000000" stroke="none" stroke-width="0.5"/><path d="M356.5071,249.85271c5.29639,-0.2107 3.17482,2.2173 1.40306,1.87632c-0.80592,-0.1551 -0.04382,-1.04238 -0.10856,-1.23477c-0.00514,-0.01526 -0.63389,0.00517 -1.12838,0.01114c-0.11968,0.01258 -0.25323,0.015 -0.39341,0.0052c-0.03312,-0.00232 -0.06577,-0.00525 -0.09786,-0.00878c-0.44629,-0.04898 -0.78417,-0.21074 -0.77143,-0.37763c0.01342,-0.17588 0.41127,-0.29198 0.8939,-0.26303c0.06175,-0.00281 0.12902,-0.00551 0.20268,-0.00844z" fill="#000000" stroke="none" stroke-width="0.5"/><path d="M360.9645,251.52924c0.00907,-0.11888 0.19377,-0.21045 0.46157,-0.24837l0.00706,-0.0038l0.02577,-0.00053c0.10984,-0.01343 0.2324,-0.0181 0.36174,-0.0123l0.12641,-0.01536l-0.13069,-0.03997l-0.04299,-0.01256l-0.1342,-0.02583l-0.15811,-0.02555l-0.15333,-0.04095l-0.06839,-0.00425l-0.07898,-0.03511l-0.09986,-0.02667l-0.01669,-0.02514l-0.12127,-0.0539l-0.13773,-0.09728l-0.00928,-0.01286l-0.02208,-0.01124l-0.02082,-0.01751l-0.00858,-0.00241l-0.00554,-0.00946l-0.01052,-0.00885l-0.03902,-0.07577l-0.04431,-0.07569l0.00069,-0.00903l-0.00488,-0.00947l0.0058,-0.00264l0.0117,-0.15325l0.03871,-0.04808l0.01498,-0.05114l0.03215,-0.03019l-0.00237,-0.00369l0.01382,-0.00705l0.00853,-0.00801l0.11508,-0.05508l0.11056,-0.05643l0.0181,-0.00515l0.01438,-0.00689l0.0099,-0.00003l0.05653,-0.01609l0.07762,-0.01126l0.06172,-0.01968l0.14705,-0.02478l0.05373,-0.00317l0.04391,-0.01032l0.0447,-0.0049l0.00522,-0.00281l0.02508,-0.00051l0.02259,-0.00248l0.20176,-0.00213l0.12607,-0.00259l0.1285,-0.00953l0.1684,0.00344l0.1654,-0.0034l0.91446,0.06393l0.08579,0.01386l0.08906,0.00468l0.47864,0.06852l0.06515,0.01594l0.07234,0.00808l0.38104,0.07923l0.08327,0.02715l0.09615,0.01935l0.0796,0.02526l0.35918,0.08398l0.12607,0.04548l0.13789,0.04028l0.19389,0.08619l0.00979,0.0014l0.01319,0.00881l0.01713,0.00761l0.10082,0.07121l0.10549,0.0705l0.00722,0.00911l0.0126,0.0089l-0.00291,0.00333l0.02722,0.03434l0.00559,0.04175l0.03422,0.01865l-0.02462,0.05296l0.00744,0.05555l-0.03919,0.01274l-0.01851,0.03981l-0.10291,0.08046l-0.02306,0.00959l-0.00925,0.01284l-0.15237,0.09453l-0.05459,0.01866l-0.03361,0.02493l-0.14971,0.05966l-0.10087,0.02214l-0.08288,0.03014l-0.16389,0.03241l-0.46284,0.11569l-0.05884,0.00709l-0.0455,0.01451l-0.70238,0.11837l-0.21501,0.04627l-0.08755,0.00831l-0.07392,0.01738l-0.09759,0.01071l-0.04059,0.00043l-0.01653,0.0047l-0.17907,0.02598l-0.17635,0.02784l-0.02385,0.0012l-0.02238,0.00325l-0.00961,-0.00163l-0.08987,0.00453l-0.03503,-0.00147l-0.03139,0.00381l-0.04258,0.00087l-0.01583,0.00267l-0.03421,0.00202l-0.01576,0.00848l-0.19672,0.00404l-0.19152,0.01128l-0.02672,-0.0068l-0.03514,0.00072l-0.14439,-0.01009c-0.15238,-0.01065 -0.2948,-0.03449 -0.4185,-0.06763l-0.02542,-0.00411l-0.00641,-0.00474c-0.2592,-0.07477 -0.42804,-0.19105 -0.41896,-0.30993zM363.77603,250.92274l0.02336,-0.00282l-0.06461,-0.01301l-0.05767,-0.0183l-0.21869,-0.04547l-0.31027,-0.04442l0.00345,0.00105l0.01678,0.0049l0.35649,0.05761l0.12451,0.09211z" fill="#000000" stroke="none" stroke-width="0.5"/><path d="M367.95986,252.65407l-0.19402,-0.03135l-0.0143,-0.01058l-0.03354,-0.00675l-0.14173,-0.04497l-0.09872,-0.0477l-0.11484,-0.0428l-0.06526,-0.03747l-0.08847,-0.03087l-0.08159,-0.04357l-0.05799,-0.01116l-0.05618,-0.04981l-0.0849,-0.04534l0.00935,-0.02165l-0.05399,-0.04787l-0.0662,-0.14454l-0.10699,-0.10098l-0.00343,-0.00096l-0.00297,-0.00507l-0.02941,-0.02776l-0.02695,-0.06852l-0.04006,-0.06842l0.00214,-0.02798l-0.002,-0.00508l0.00246,-0.001l0.03067,-0.40189l0.02013,-0.025l-0.0039,-0.0274l0.05612,-0.10126l0.00628,-0.0045l-0.0003,-0.00541l0.05478,-0.08383l0.03747,-0.02461l0.01344,-0.02891l0.06156,-0.04813l-0.00042,-0.00066l0.00366,-0.00187l0.03812,-0.0298l0.10937,-0.04548l0.09683,-0.04943l0.06976,-0.01985l0.00414,-0.00172l0.00179,0.00003l0.09269,-0.02637l0.22181,-0.07833l0.03405,-0.0065l0.02225,-0.01135l0.19784,-0.05629l0.15375,-0.0223l0.03556,-0.01913l0.11221,-0.0023l0.10014,-0.01453l0.06546,0.01113l0.17229,-0.00354l0.91446,0.06393l0.05797,0.00937l0.05997,0.00173l0.71928,0.08534l0.07853,0.01696l0.08498,0.00833l0.28612,0.05506l0.0816,0.02496l0.0934,0.01697l0.23666,0.06914l0.01499,0.00666l0.02033,0.00409l0.42518,0.13491l0.09872,0.0477l0.11484,0.0428l0.10235,0.05877l0.04991,0.02219l0.02813,0.01987l0.0361,0.00743l0.06995,0.06747l0.09195,0.06494l-0.01127,0.01288l0.0214,0.02064l0.04014,0.10799l-0.00802,0.02657l0.01612,0.02753l-0.04924,0.64521l-0.03871,0.04808l-0.01498,0.05114l-0.10424,0.0979l-0.03605,0.01725l-0.0157,0.02178l-0.10158,0.06302l-0.04904,0.01676l-0.00371,0.01596l-0.13774,0.03238l-0.11905,0.04069l-0.0446,-0.00222l-0.05673,0.01334l-0.04712,0.00517l-0.09989,0.01683l-0.05373,0.00317l-0.04391,0.01032l-0.19518,0.02142l-0.0632,0.00067l-0.05524,0.00872l-0.14572,0.00734l-0.08119,-0.00341l-0.0761,0.00585l-0.31358,-0.00567l-0.09946,0.00025l-0.18421,0.02021l-0.11728,0.00124l-0.10933,0.01098l-0.24198,0.00062l-0.02534,-0.00221l-0.02379,0.00183l-0.33824,-0.00611l-0.06382,-0.00687l-0.06286,0.00129l-0.4813,-0.03365l-0.44391,-0.07174l-0.02135,-0.01579zM370.2326,252.10343l0.07502,-0.00823l0.00072,-0.00067l0.04232,-0.55442l-0.01743,-0.01001l-0.28274,-0.08971l-0.13596,-0.03972l-0.11414,-0.02197l-0.57691,-0.06845l-0.46848,-0.03275l-0.13743,0.04853l-0.03405,0.0065l-0.02225,0.01135l-0.06297,0.01792l-0.03223,0.04931l-0.03917,0.07068l-0.02598,0.3404l0.10828,0.1022l0.01443,0.03668l0.04007,0.03553l0.03316,0.07241l0.012,0.00447c0.1046,0.01197 0.20308,0.03013 0.29229,0.05309l0.01379,0.00096l0.25043,0.00453l0.09946,-0.00025l0.18421,-0.02021l0.11728,-0.00124l0.10933,-0.01098l0.24198,-0.00062l0.02534,0.00221l0.02379,-0.00183l0.25812,0.00467z" fill="#000000" stroke="none" stroke-width="0.5"/><path d="M375.91834,252.15476c-0.38076,0.65029 -2.73118,0.71878 -1.98541,-0.03229c0.28118,-0.28317 0.30723,-0.32348 0.29742,-0.69733c-0.00116,-0.04422 -0.07758,-0.05675 -0.19515,-0.05331c-0.15943,0.08992 -0.45922,0.1375 -0.79776,0.11384c-0.08015,-0.0056 -0.15755,-0.01486 -0.23092,-0.02719c-0.37857,-0.06365 -0.64981,-0.20937 -0.63837,-0.35922c0.01093,-0.14322 0.27676,-0.2468 0.63571,-0.2647c1.7157,-0.5233 3.46979,0.37179 2.91448,1.3202z" fill="#000000" stroke="none" stroke-width="0.5"/></g></g></g></svg>